PathFileType	4	(X/Y/Z)	/Users/itak/Documents/Research/Walk-IL/dataset/trc/00347_00011.trc
DataRate	CameraRate	NumFrames	NumMarkers	Units	OrigDataRate	OrigDataStartFrame	OrigNumFrames
100.000000	100.000000	4	53	mm	100.000000	366	732
Frame#	Time	RPSI			LPSI			STRN			T10			C7			CLAV			RBAK			LBAK			LSHO			LUPA			LAEL			LAOL			LWTS			LWPS			LFRA			LIFD			LHPS			LHTS			RSHO			RUPA			RAEL			RAOL			RWTS			RWPS			RFRA			RHTS			RHPS			RBHD			LFHD			RFHD			LBHD			LHIP			RHIP			RASI			LASI			LKNE			LTHI			LANK			LTIP			LTOE			LMT1			LMT5			LHEE			RKNE			RANK			RTIP			RTOE			RMT1			RMT5			RHEE			L3			RIFD			RTHI			
		X1	Y1	Z1	X2	Y2	Z2	X3	Y3	Z3	X4	Y4	Z4	X5	Y5	Z5	X6	Y6	Z6	X7	Y7	Z7	X8	Y8	Z8	X9	Y9	Z9	X10	Y10	Z10	X11	Y11	Z11	X12	Y12	Z12	X13	Y13	Z13	X14	Y14	Z14	X15	Y15	Z15	X16	Y16	Z16	X17	Y17	Z17	X18	Y18	Z18	X19	Y19	Z19	X20	Y20	Z20	X21	Y21	Z21	X22	Y22	Z22	X23	Y23	Z23	X24	Y24	Z24	X25	Y25	Z25	X26	Y26	Z26	X27	Y27	Z27	X28	Y28	Z28	X29	Y29	Z29	X30	Y30	Z30	X31	Y31	Z31	X32	Y32	Z32	X33	Y33	Z33	X34	Y34	Z34	X35	Y35	Z35	X36	Y36	Z36	X37	Y37	Z37	X38	Y38	Z38	X39	Y39	Z39	X40	Y40	Z40	X41	Y41	Z41	X42	Y42	Z42	X43	Y43	Z43	X44	Y44	Z44	X45	Y45	Z45	X46	Y46	Z46	X47	Y47	Z47	X48	Y48	Z48	X49	Y49	Z49	X50	Y50	Z50	X51	Y51	Z51	X52	Y52	Z52	X53	Y53	Z53	

367	3.66	109.5976333618164	961.0703125	-283.5126037597656	144.1874237060547	974.7938232421875	-408.4510803222656	369.4533996582031	1202.999389648438	-282.9434204101562	137.7240142822266	1155.547973632812	-359.9223327636719	202.9112091064453	1398.751342773438	-360.306884765625	341.4273986816406	1332.079345703125	-300.5381469726562	119.5153121948242	1268.701782226562	-313.9172973632812	224.6280212402344	1360.115600585938	-458.8764953613281	323.9337158203125	1373.156982421875	-479.8233947753906	333.3573303222656	1260.816650390625	-558.6825561523438	387.7462158203125	1068.733520507812	-601.8108520507812	318.0322875976562	1035.30322265625	-564.401123046875	536.7145385742188	860.9541625976562	-574.0818481445312	505.1367492675781	846.4781494140625	-633.8651123046875	427.2535095214844	972.3563842773438	-621.4599609375	598.1753540039062	715.4329223632812	-595.3906860351562	526.857177734375	780.9554443359375	-639.6591796875	577.8671875	798.4615478515625	-602.0259399414062	198.0177917480469	1389.275268554688	-189.3548736572266	151.7831420898438	1334.34521484375	-135.9508361816406	62.22518539428711	1083.637573242188	-107.1713790893555	69.94117736816406	1072.96337890625	-200.7095642089844	134.2142639160156	840.2909545898438	-81.39722442626953	64.14491271972656	835.1905517578125	-49.93269729614258	62.02130508422852	1014.026062011719	-85.33879852294922	132.2543182373047	739.2243041992188	-47.83000183105469	64.58909606933594	751.280517578125	-39.49444580078125	240.6185150146484	1598.7119140625	-260.409423828125	446.1429748535156	1587.98193359375	-293.0172119140625	394.5986633300781	1587.87451171875	-206.1372528076172	290.3881225585938	1598.111206054688	-395.6309204101562	250.5381164550781	921.5713500976562	-491.7908630371094	163.0720672607422	906.8295288085938	-160.62158203125	273.817626953125	936.5196533203125	-178.2980804443359	357.0725708007812	937.7545776367188	-402.3666381835938	295.031005859375	462.4983825683594	-486.2646179199219	298.8386840820312	602.4957275390625	-489.5796508789062	167.1227111816406	46.26315689086914	-503.0142211914062	238.8083343505859	246.0843505859375	-508.4524841308594	373.8267211914062	38.46565628051758	-443.5011901855469	305.4203491210938	29.23381423950195	-401.0970764160156	291.299560546875	36.55124282836914	-514.7503051757812	134.4449310302734	43.87675857543945	-434.9995422363281	377.66796875	482.9983520507812	-141.6261901855469	162.5152587890625	149.8005218505859	-292.1133422851562	347.4337158203125	369.9512023925781	-180.6629333496094	331.741455078125	48.90715789794922	-302.9889526367188	292.8914489746094	74.88444519042969	-353.9515380859375	231.7322692871094	82.90518951416016	-255.0085296630859	135.6318511962891	182.4282836914062	-346.1422729492188	127.3431091308594	1037.386474609375	-349.9237365722656	111.0532379150391	669.2946166992188	-67.34239196777344	292.6558532714844	723.1906127929688	-124.5686264038086	
368	3.67	115.441162109375	961.1792602539062	-284.4328308105469	151.3338623046875	974.8403930664062	-408.9047241210938	375.7393493652344	1202.409790039062	-281.5137023925781	144.5141448974609	1155.446411132812	-361.283447265625	210.4360046386719	1398.43115234375	-360.6666564941406	348.111572265625	1331.56884765625	-299.3232421875	125.8719711303711	1268.645751953125	-315.5654907226562	233.2578887939453	1359.780883789062	-459.0175170898438	332.7548217773438	1372.749877929688	-478.7638549804688	343.5847473144531	1260.351196289062	-557.4197998046875	401.0222473144531	1068.941284179688	-599.6370239257812	331.3966674804688	1034.548217773438	-562.9165649414062	553.9110717773438	864.864501953125	-568.8003540039062	523.3922729492188	849.0362548828125	-628.7880249023438	442.6084289550781	973.2322387695312	-618.3246459960938	619.3133544921875	720.6969604492188	-588.0806274414062	546.85986328125	784.1070556640625	-633.8058471679688	597.0874633789062	803.3604125976562	-595.8973999023438	203.5328826904297	1388.748901367188	-189.7183074951172	156.4635009765625	1333.806274414062	-137.1008453369141	65.75704193115234	1083.361572265625	-109.9798278808594	74.8763427734375	1072.664794921875	-203.3863220214844	134.8027496337891	839.12744140625	-83.4610595703125	64.47544097900391	835.0595703125	-52.59775924682617	64.90945434570312	1013.835388183594	-88.13254547119141	131.0039215087891	737.9287109375	-50.20597076416016	63.52246856689453	751.1163330078125	-42.31264877319336	246.7632904052734	1598.373779296875	-260.3826904296875	452.813720703125	1587.536499023438	-289.7357177734375	399.8030090332031	1587.350341796875	-203.6161193847656	298.7203979492188	1597.863403320312	-394.7724914550781	258.6541137695312	920.9906616210938	-491.2559204101562	167.7934265136719	907.1038208007812	-161.0196075439453	278.7282409667969	936.3558959960938	-177.8533935546875	363.9843139648438	936.9629516601562	-401.1542053222656	297.3028564453125	462.0584411621094	-485.8052978515625	302.7408142089844	601.9422607421875	-488.8385314941406	167.2173156738281	46.50455093383789	-502.7107238769531	239.8256072998047	246.0055694580078	-508.1172485351562	373.8827819824219	38.40948486328125	-443.4651184082031	305.4694213867188	29.23265075683594	-401.0849304199219	291.3531188964844	36.63529586791992	-514.6031494140625	134.240234375	44.11373138427734	-434.8502502441406	384.6847839355469	484.0415344238281	-138.456298828125	188.017333984375	139.7647552490234	-290.587646484375	359.59716796875	369.1443786621094	-177.1028137207031	362.9260864257812	48.5616455078125	-293.8912353515625	324.36767578125	71.07382202148438	-346.3615112304688	259.5544128417969	77.6943359375	-250.0267028808594	161.0906982421875	169.9542388916016	-346.0665588378906	133.8122711181641	1037.18603515625	-350.8265686035156	108.7716369628906	668.5120849609375	-70.02953338623047	297.3486328125	724.57080078125	-122.5235748291016	
369	3.68	121.3561630249023	961.267822265625	-285.1344909667969	158.466064453125	974.8384399414062	-409.1423950195312	382.0195922851562	1201.734985351562	-279.9590148925781	151.2518768310547	1155.28662109375	-362.4668273925781	217.9375762939453	1398.039306640625	-360.8143005371094	354.7821655273438	1330.975341796875	-297.9501953125	132.3395233154297	1268.48046875	-316.9648132324219	241.8315124511719	1359.37744140625	-458.9497985839844	341.492431640625	1372.247802734375	-477.5449523925781	353.6490783691406	1259.787109375	-555.9679565429688	413.9719543457031	1069.021240234375	-597.1845092773438	344.4256896972656	1033.72216796875	-561.1331176757812	570.5189819335938	868.669921875	-563.0713500976562	541.1057739257812	851.4841918945312	-623.2437133789062	457.5423278808594	973.9945068359375	-614.8058471679688	639.7147216796875	725.86279296875	-580.1265869140625	566.2665405273438	787.1846313476562	-627.3967895507812	615.51953125	807.9922485351562	-589.1692504882812	209.0908813476562	1388.132446289062	-189.87548828125	161.19775390625	1333.137939453125	-138.0443572998047	69.59535980224609	1082.875122070312	-112.6364898681641	80.09944152832031	1072.190185546875	-205.8848114013672	135.7531890869141	837.8090209960938	-85.4932861328125	65.17087554931641	834.7635498046875	-55.22319030761719	68.09806823730469	1013.457458496094	-90.81034088134766	130.1086120605469	736.47509765625	-52.69704818725586	62.85676193237305	750.7863159179688	-45.15027236938477	252.8895416259766	1597.952026367188	-260.1906433105469	459.4115600585938	1587.015258789062	-286.3768310546875	404.9491271972656	1586.75	-201.0168762207031	306.96142578125	1597.512817382812	-393.7365112304688	266.7388305664062	920.388427734375	-490.5418701171875	172.6405334472656	907.3070678710938	-161.2413024902344	283.7581787109375	936.0946655273438	-177.3059234619141	370.848876953125	936.1417846679688	-399.8726501464844	299.5301818847656	461.6472778320312	-485.3058166503906	306.6380310058594	601.3516235351562	-488.0522766113281	167.3140258789062	46.75450134277344	-502.4065856933594	240.8386383056641	245.9229583740234	-507.7776184082031	373.9281005859375	38.34676742553711	-443.4188537597656	305.4019165039062	29.05716705322266	-400.9852600097656	291.3945617675781	36.70899963378906	-514.473388671875	134.0458374023438	44.35971450805664	-434.7028198242188	390.8627624511719	484.6396484375	-135.6263885498047	213.9799346923828	129.5774536132812	-288.032958984375	371.2467956542969	368.0733337402344	-173.4004058837891	393.7248229980469	48.57290649414062	-283.4898986816406	355.7160034179688	67.46194458007812	-337.5449829101562	287.3553466796875	72.54961395263672	-243.9028472900391	187.2142181396484	157.2414703369141	-344.9919738769531	140.2968292236328	1036.931030273438	-351.5224914550781	106.7924957275391	667.59912109375	-72.86274719238281	301.8106079101562	725.6466064453125	-120.5272903442383	
370	3.69	127.3395919799805	961.3239135742188	-285.617431640625	165.5696868896484	974.7699584960938	-409.1784973144531	388.287353515625	1200.986572265625	-278.2824401855469	157.9594421386719	1155.069702148438	-363.4658203125	225.4197540283203	1397.58837890625	-360.7501831054688	361.4415283203125	1330.316162109375	-296.4137573242188	138.9499664306641	1268.204711914062	-318.1003112792969	250.3472900390625	1358.912963867188	-458.6726989746094	350.1531372070312	1371.663940429688	-476.1628723144531	363.5641174316406	1259.14501953125	-554.327880859375	426.603515625	1068.982055664062	-594.451904296875	357.124755859375	1032.837280273438	-559.0529174804688	586.5292358398438	872.3524169921875	-556.9248046875	558.2503051757812	853.8121948242188	-617.2556762695312	472.0506591796875	974.6461791992188	-610.9127197265625	659.3694458007812	730.9637451171875	-571.6160278320312	585.0520629882812	790.176025390625	-620.4695434570312	633.1602783203125	812.3629150390625	-581.8818359375	214.6607360839844	1387.437255859375	-189.8413391113281	165.9796600341797	1332.3564453125	-138.7795562744141	73.72750854492188	1082.205810546875	-115.1269454956055	85.60691833496094	1071.569091796875	-208.1911163330078	137.0936737060547	836.3789672851562	-87.45275115966797	66.23622894287109	834.3172607421875	-57.79448699951172	71.56877899169922	1012.909973144531	-93.36325836181641	129.5995941162109	734.899169921875	-55.27723693847656	62.64142227172852	750.3002319335938	-47.98630905151367	259.0012817382812	1597.449584960938	-259.8291931152344	465.9390869140625	1586.42626953125	-282.9386901855469	410.0548400878906	1586.085083007812	-198.3375854492188	315.1131896972656	1597.059936523438	-392.5241088867188	274.6861572265625	919.7752685546875	-489.6787414550781	177.6035461425781	907.4297485351562	-161.2815551757812	288.8978271484375	935.7449340820312	-176.6288757324219	377.6791381835938	935.2882080078125	-398.49609375	301.7474365234375	461.2619934082031	-484.7560119628906	310.5695495605469	600.722412109375	-487.2194213867188	167.4125061035156	47.01772689819336	-502.1051330566406	241.8560028076172	245.8360900878906	-507.4275512695312	373.9622497558594	38.27169036865234	-443.3589172363281	305.2030334472656	28.69396018981934	-400.79248046875	291.4274597167969	36.77421188354492	-514.3607788085938	133.9058227539062	44.60141372680664	-434.5408630371094	396.2297668457031	484.7326965332031	-133.1934356689453	240.3332366943359	119.3766174316406	-284.4514770507812	382.3561706542969	366.7381591796875	-169.6168670654297	424.012939453125	48.98818588256836	-271.8675842285156	386.8539123535156	64.16188812255859	-327.5227355957031	315.0699768066406	67.60496520996094	-236.652587890625	213.9704284667969	144.4422760009766	-342.8910217285156	146.7999267578125	1036.631958007812	-352.0096740722656	105.1757736206055	666.5779418945312	-75.82895660400391	306.0517578125	726.3873901367188	-118.5932922363281	
